{
    "asset" : {
        "generator" : "Khronos glTF Blender I/O v1.0.5",
        "version" : "2.0"
    },
    "scene" : 0,
    "scenes" : [
        {
            "name" : "Scene",
            "nodes" : [
                0
            ]
        }
    ],
    "nodes" : [
        {
            "mesh" : 0,
            "name" : "Curve.001",
            "rotation" : [
                -0.7071067690849304,
                0,
                0,
                -0.7071067690849304
            ],
            "scale" : [
                30.890939712524414,
                30.890945434570312,
                30.890945434570312
            ]
        }
    ],
    "animations" : [
        {
            "channels" : [
                {
                    "sampler" : 0,
                    "target" : {
                        "node" : 0,
                        "path" : "rotation"
                    }
                }
            ],
            "name" : "Curve.001Action.001",
            "samplers" : [
                {
                    "input" : 3,
                    "interpolation" : "LINEAR",
                    "output" : 4
                }
            ]
        }
    ],
    "materials" : [
        {
            "doubleSided" : true,
            "name" : "SVGMat",
            "pbrMetallicRoughness" : {}
        }
    ],
    "meshes" : [
        {
            "name" : "Curve.001",
            "primitives" : [
                {
                    "attributes" : {
                        "POSITION" : 0,
                        "NORMAL" : 1
                    },
                    "indices" : 2,
                    "material" : 0
                }
            ]
        }
    ],
    "accessors" : [
        {
            "bufferView" : 0,
            "componentType" : 5126,
            "count" : 59872,
            "max" : [
                0.04976966232061386,
                0.010171051137149334,
                0.017143160104751587
            ],
            "min" : [
                -0.036926887929439545,
                -0.0011555806268006563,
                -0.08359101414680481
            ],
            "type" : "VEC3"
        },
        {
            "bufferView" : 1,
            "componentType" : 5126,
            "count" : 59872,
            "type" : "VEC3"
        },
        {
            "bufferView" : 2,
            "componentType" : 5123,
            "count" : 190572,
            "type" : "SCALAR"
        },
        {
            "bufferView" : 3,
            "componentType" : 5126,
            "count" : 137,
            "max" : [
                4.566666666666666
            ],
            "min" : [
                0.03333333333333333
            ],
            "type" : "SCALAR"
        },
        {
            "bufferView" : 4,
            "componentType" : 5126,
            "count" : 137,
            "type" : "VEC4"
        }
    ],
    "bufferViews" : [
        {
            "buffer" : 0,
            "byteLength" : 718464,
            "byteOffset" : 0
        },
        {
            "buffer" : 0,
            "byteLength" : 718464,
            "byteOffset" : 718464
        },
        {
            "buffer" : 0,
            "byteLength" : 381144,
            "byteOffset" : 1436928
        },
        {
            "buffer" : 0,
            "byteLength" : 548,
            "byteOffset" : 1818072
        },
        {
            "buffer" : 0,
            "byteLength" : 2192,
            "byteOffset" : 1818620
        }
    ],
    "buffers" : [
        {
            "byteLength" : 1820812,
            "uri" : "data:application/octet-stream;base64,"
        }
    ]
}
